<html>
<head>
<meta charset="UTF-8">
<meta name="viewport" content="width=device-width, initial-scale=1.0"/>

<style>
.comment
{
    padding-left: 20px;
    margin-top: 4px;
    margin-right: 4px;
    margin-bottom: 4px;
    border: 2px #000 solid;
}
.submission
{
    border: 4px #00f solid;
    padding-left: 20px;
}
.hidden
{
    display: none;
}
</style>
</head>
<body><div class="submission" id="t3_6ake45">
    <p class="userinfo">
        <a href="https://www.reddit.com/u/TheMrMcGibblets">TheMrMcGibblets</a>
        <span class="score"> | 47 points</span>
        <span class="timestamp"> | May 11 2017 14:17:52</span>
    </p>
    <strong>[MOVIE] Kick-Ass 2010 1080p BluRay H264 AAC [2.25GB]</strong>
    <p><p>Add mega</p>
<p>.nz/#!QCp1hQRL</p>
<p>!psBzrCODec3C2m0xnNQ0k9P_5tpFz6Fa0H0Dr1mCbTA</p>
<pre><code>Video
ID                                       : 1
Format                                   : AVC
Format/Info                              : Advanced Video Codec
Format profile                           : High@L4.1
Format settings, CABAC                   : Yes
Format settings, ReFrames                : 4 frames
Codec ID                                 : avc1
Codec ID/Info                            : Advanced Video Coding
Duration                                 : 1h 57mn
Bit rate                                 : 2 500 Kbps
Width                                    : 1 920 pixels
Height                                   : 800 pixels
Display aspect ratio                     : 2.40:1
Frame rate mode                          : Constant
Frame rate                               : 23.976 (23976/1000) fps
Color space                              : YUV
Chroma subsampling                       : 4:2:0
Bit depth                                : 8 bits
Scan type                                : Progressive
Bits/(Pixel*Frame)                       : 0.068
Stream size                              : 2.06 GiB (92%)
Writing library                          : x264 core 148 r2638M 7599210
Encoding settings                        : cabac=1 / ref=4 / deblock=1:-1:-1 / analyse=0x3:0x113 / me=umh / subme=9 / psy=1 / psy_rd=1.00:0.15 / mixed_ref=1 / me_range=24 / chroma_me=1 / trellis=2 / 8x8dct=1 / cqm=0 / deadzone=21,11 / fast_pskip=1 / chroma_qp_offset=-3 / threads=32 / lookahead_threads=4 / sliced_threads=0 / nr=0 / decimate=1 / interlaced=0 / bluray_compat=0 / constrained_intra=0 / bframes=3 / b_pyramid=2 / b_adapt=2 / b_bias=0 / direct=3 / weightb=1 / open_gop=0 / weightp=2 / keyint=250 / keyint_min=25 / scenecut=40 / intra_refresh=0 / rc_lookahead=50 / rc=2pass / mbtree=1 / bitrate=2500 / ratetol=1.0 / qcomp=0.60 / qpmin=0 / qpmax=69 / qpstep=4 / cplxblur=20.0 / qblur=0.5 / vbv_maxrate=31250 / vbv_bufsize=31250 / nal_hrd=none / filler=0 / ip_ratio=1.40 / aq=3:1.00
Encoded date                             : UTC 2016-01-28 16:59:45
Tagged date                              : UTC 2016-01-28 16:59:45

Audio
ID                                       : 2
Format                                   : AAC
Format/Info                              : Advanced Audio Codec
Format profile                           : LC
Codec ID                                 : 40
Duration                                 : 1h 57mn
Bit rate mode                            : Constant
Bit rate                                 : 224 Kbps
Channel(s)                               : 2 channels
Channel(s)_Original                      : 6 channels
Channel positions                        : Front: L C R, Side: L R, LFE
Sampling rate                            : 48.0 KHz
Frame rate                               : 46.875 fps (1024 spf)
Compression mode                         : Lossy
Stream size                              : 189 MiB (8%)
Language                                 : English
Default                                  : Yes
Alternate group                          : 1
Encoded date                             : UTC 2016-01-28 16:59:45
Tagged date                              : UTC 2016-01-28 16:59:45
</code></pre></p>
    <p class="toolbar">
        <a href="https://www.reddit.com/r/megalinks/comments/6ake45">permalink</a>
    </p>
</div>
<div class="comment" id="t1_dhf61w5">
    <p class="userinfo">
        <a
        class="toggle_hide_button"
        href="javascript:void(0)"
        onclick="toggle_collapse(this.parentElement.parentElement)">[-]
        </a>
        <a href="https://www.reddit.com/u/boltrop">boltrop</a>
        <span class="score"> | 1 points</span>
        <span class="timestamp"> | May 11 2017 14:19:07</span>
    </p>
    <div class="collapsible">
        <h3><a href="https://images-na.ssl-images-amazon.com/images/M/MV5BMTMzNzEzMDYxM15BMl5BanBnXkFtZTcwMTc0NTMxMw@@._V1_.jpg">Kick-Ass</a> (2010)</h3>
<p><strong>Genre</strong>: Action, Comedy</p>
<p><strong>Rating</strong>:  7.7 (455934 votes)</p>
<p><strong>Certification</strong>: R</p>
<p><strong>Runtime</strong>: 117 min</p>
<hr>
<blockquote>
<p><strong>Director(s)</strong>: <a href="https://www.imdb.com/name/nm0891216/">Matthew Vaughn</a></p>
<p><strong>Writer(s)</strong>: <a href="https://www.imdb.com/name/nm0963359/">Jane Goldman</a>, <a href="https://www.imdb.com/name/nm0891216/">Matthew Vaughn</a></p>
<p><strong>Cast</strong>: <a href="https://www.imdb.com/name/nm1093951/">Aaron Taylor-Johnson</a>, <a href="https://www.imdb.com/name/nm0000115/">Nicolas Cage</a>, <a href="https://www.imdb.com/name/nm1631269/">Chloë Grace Moretz</a>, <a href="https://www.imdb.com/name/nm0113595/">Garrett M. Brown</a></p>
<p><strong>Plot</strong>: Dave Lizewski is an unnoticed high school student and comic book fan who one day decides to become a superhero, even though he has no powers, training or meaningful reason to do so.</p>
</blockquote>
<hr>
<p>^This ^summary ^is ^taken ^from <a href="https://www.imdb.com/title/tt1250777/">^imdb.com</a> ^| ^For ^feedback ^or ^suggestions ^contact <a href="http://www.reddit.com/message/compose/?to=indigo6alpha">^/u/indigo6alpha</a></p>
        <p class="toolbar">
            <a href="https://www.reddit.com/r/megalinks/comments/6ake45/_/dhf61w5">permalink</a>
        </p>
        
    </div>
</div>

<div class="comment" id="t1_dhf63nn">
    <p class="userinfo">
        <a
        class="toggle_hide_button"
        href="javascript:void(0)"
        onclick="toggle_collapse(this.parentElement.parentElement)">[-]
        </a>
        <a href="https://www.reddit.com/u/SubZorro">SubZorro</a>
        <span class="score"> | 1 points</span>
        <span class="timestamp"> | May 11 2017 14:20:04</span>
    </p>
    <div class="collapsible">
        <h5>Subtitles for this movie:</h5>
<hr>
<blockquote>
<ul>
<li>
<p><strong>Kick-Ass.2010.BluRay.RoSubbed.1080p.DTS.x264-CHD</strong> - <code>1 CD</code> - <a href="http://dl.opensubtitles.org/en/download/vrf-e188b39e/sub/4546787">Download Subtitle</a></p>
</li>
<li>
<p><strong>Kick-Ass.2010.720p.BluRay.X264-AMIABLE</strong> - <code>1 CD</code> - <a href="http://dl.opensubtitles.org/en/download/vrf-604ce2f1/sub/3710102">Download Subtitle</a></p>
</li>
<li>
<p><strong>Kick-Ass.2010.R5.XviD.AC3-ViSiON</strong> - <code>1 CD</code> - <a href="http://dl.opensubtitles.org/en/download/vrf-34025297/sub/3677507">Download Subtitle</a></p>
</li>
</ul>
</blockquote>
<hr>
<p>^This ^list ^of ^subtitles ^are ^taken ^from <a href="http://www.opensubtitles.org">^opensubtitles.org</a> ^| ^For ^feedback ^or ^suggestions ^contact <a href="http://www.reddit.com/message/compose/?to=indigo6alpha">^/u/indigo6alpha</a></p>
        <p class="toolbar">
            <a href="https://www.reddit.com/r/megalinks/comments/6ake45/_/dhf63nn">permalink</a>
        </p>
        
    </div>
</div>

<div class="comment" id="t1_dhg4ldg">
    <p class="userinfo">
        <a
        class="toggle_hide_button"
        href="javascript:void(0)"
        onclick="toggle_collapse(this.parentElement.parentElement)">[-]
        </a>
        <a href="https://www.reddit.com/u/longshotx17">longshotx17</a>
        <span class="score"> | 1 points</span>
        <span class="timestamp"> | May 12 2017 01:18:56</span>
    </p>
    <div class="collapsible">
        <p>Thanks for the upload! But, is anyone else having trouble playing the file? I've tried VLC and MX Player and no luck.</p>
        <p class="toolbar">
            <a href="https://www.reddit.com/r/megalinks/comments/6ake45/_/dhg4ldg">permalink</a>
        </p>
        
    </div>
</div>
</body>

<script>
function toggle_collapse(comment_div)
{
    var button = comment_div.getElementsByClassName("toggle_hide_button")[0];
    var collapsible = comment_div.getElementsByClassName("collapsible")[0];
    if (collapsible.classList.contains("hidden"))
    {
        collapsible.classList.remove("hidden");
        button.innerText = "[-]";
    }
    else
    {
        collapsible.classList.add("hidden");
        button.innerText = "[+]";
    }
}
</script>
</html>
